HIERARCHY
ROOT Hips
{
	OFFSET	0.00	0.00	0.00
	CHANNELS 6 Xposition Yposition Zposition Zrotation Xrotation Yrotation
	JOINT LeftUpLeg
	{
		OFFSET	 0.126116	-0.014019	-0.065224
		CHANNELS 3 Zrotation Xrotation Yrotation
		JOINT LeftLeg
		{
			OFFSET	 0.000000	 0.000000	 0.569914
			CHANNELS 3 Zrotation Xrotation Yrotation
			JOINT LeftFoot
			{
				OFFSET	 0.000000	 0.000000	 0.544423
				CHANNELS 3 Zrotation Xrotation Yrotation
				JOINT LeftToeBase
				{
					OFFSET	 0.000000	 0.000000	 0.207117
					CHANNELS 3 Zrotation Xrotation Yrotation
					End Site
					{
						OFFSET	 0.000000	 0.000000	 0.207117
					}
				}
			}
		}
	}
	JOINT RightUpLeg
	{
		OFFSET	-0.124023	-0.008373	-0.065224
		CHANNELS 3 Zrotation Xrotation Yrotation
		JOINT RightLeg
		{
			OFFSET	 0.000000	 0.000000	 0.570047
			CHANNELS 3 Zrotation Xrotation Yrotation
			JOINT RightFoot
			{
				OFFSET	 0.000000	 0.000000	 0.544354
				CHANNELS 3 Zrotation Xrotation Yrotation
				JOINT RightToeBase
				{
					OFFSET	 0.000000	 0.000000	 0.207540
					CHANNELS 3 Zrotation Xrotation Yrotation
					End Site
					{
						OFFSET	 0.000000	 0.000000	 0.207540
					}
				}
			}
		}
	}
	JOINT Spine
	{
		OFFSET	 0.000184	-0.007763	 0.117403
		CHANNELS 3 Zrotation Xrotation Yrotation
		JOINT Spine1
		{
			OFFSET	 0.000000	 0.000000	 0.137269
			CHANNELS 3 Zrotation Xrotation Yrotation
			JOINT Spine2
			{
				OFFSET	 0.000000	 0.000000	 0.156879
				CHANNELS 3 Zrotation Xrotation Yrotation
				JOINT LeftShoulder
				{
					OFFSET	 0.080501	-0.002496	 0.160144
					CHANNELS 3 Zrotation Xrotation Yrotation
					JOINT LeftArm
					{
						OFFSET	 0.000000	 0.000000	 0.164363
						CHANNELS 3 Zrotation Xrotation Yrotation
						JOINT LeftForeArm
						{
							OFFSET	 0.000000	 0.000000	 0.364576
							CHANNELS 3 Zrotation Xrotation Yrotation
							JOINT LeftHand
							{
								OFFSET	 0.000000	 0.000000	 0.360812
								CHANNELS 3 Zrotation Xrotation Yrotation
								JOINT LeftHandIndex1
								{
									OFFSET	 0.000000	 0.000000	 0.086006
									CHANNELS 3 Zrotation Xrotation Yrotation
									JOINT LeftHandIndex2
									{
										OFFSET	 0.000000	 0.000000	 0.047237
										CHANNELS 3 Zrotation Xrotation Yrotation
										JOINT LeftHandIndex3
										{
											OFFSET	-0.004284	-0.000551	 0.038165
											CHANNELS 3 Zrotation Xrotation Yrotation
											End Site
											{
												OFFSET	-0.004284	-0.000551	 0.038165
											}
										}
									}
								}
							}
						}
					}
				}
				JOINT Neck
				{
					OFFSET	 0.000000	 0.000000	 0.176489
					CHANNELS 3 Zrotation Xrotation Yrotation
					JOINT Head
					{
						OFFSET	 0.000000	-0.001747	 0.077940
						CHANNELS 3 Zrotation Xrotation Yrotation
						End Site
						{
							OFFSET	 0.000000	-0.001747	 0.077940
						}
					}
				}
				JOINT RightShoulder
				{
					OFFSET	-0.080363	 0.000306	 0.159706
					CHANNELS 3 Zrotation Xrotation Yrotation
					JOINT RightArm
					{
						OFFSET	 0.000000	 0.000000	 0.164196
						CHANNELS 3 Zrotation Xrotation Yrotation
						JOINT RightForeArm
						{
							OFFSET	 0.000000	 0.000000	 0.365611
							CHANNELS 3 Zrotation Xrotation Yrotation
							JOINT RightHand
							{
								OFFSET	 0.000000	 0.000000	 0.360648
								CHANNELS 3 Zrotation Xrotation Yrotation
								JOINT RightHandIndex1
								{
									OFFSET	 0.000000	 0.000000	 0.069977
									CHANNELS 3 Zrotation Xrotation Yrotation
									JOINT RightHandIndex2
									{
										OFFSET	 0.000000	 0.000000	 0.052305
										CHANNELS 3 Zrotation Xrotation Yrotation
										JOINT RightHandIndex3
										{
											OFFSET	 0.009002	-0.000782	 0.042196
											CHANNELS 3 Zrotation Xrotation Yrotation
											End Site
											{
												OFFSET	 0.009002	-0.000782	 0.042196
											}
										}
									}
								}
							}
						}
					}
				}
			}
		}
	}
}
MOTION
Frames:    4
Frame Time: 0.03333334
-0.715720	-1.655573	 1.274709	-176.482900	 6.049677	-2.273754	-14.558630	-7.933141	-178.602700	-0.513113	-11.658390	 0.290841	-18.072610	 53.726370	 7.834131	-2.385833	 28.452760	 0.000004	 10.188010	-11.855250	-178.466900	-5.203140	-19.672480	 1.923548	-12.861910	 84.473910	 23.315610	 2.384659	 28.388700	-0.000001	-11.003440	 6.555925	 4.400574	-6.151593	-8.499811	-15.763840	 13.552350	-8.551986	 16.421010	-91.776280	 78.527380	-179.999900	-36.842120	 1.702438	 6.045309	-8.583108	-6.580592	-45.322270	 6.787879	-14.058400	-4.266867	-4.131196	 21.524690	 0.986298	-5.167839	 0.733520	 3.519257	-1.378229	 35.397820	-2.634230	 1.527515	 8.094914	 0.807339	-12.657910	-9.436305	-4.469196	 89.782060	 78.203920	-180.000000	-7.152432	 2.949137	-11.326480	-2.571077	-14.216120	 41.721870	-5.865536	 38.022160	 76.055800	 5.715225	 19.176060	-3.692089	 5.027514	 0.245388	-9.378011	-2.350882	 35.473990	 5.254307
-0.714907	-1.654453	 1.274466	-176.441500	 6.043972	-2.379096	-14.541520	-8.254328	-178.597800	-0.233621	-12.677860	 0.377264	-18.766330	 53.901720	 8.461868	-2.385833	 28.452760	 0.000004	 10.754190	-12.189120	-178.284300	-5.491550	-20.272760	 1.879012	-12.789410	 85.436530	 23.477340	 2.384659	 28.388700	-0.000001	-11.250860	 6.424722	 4.488932	-6.392092	-7.942135	-15.840540	 13.635290	-8.782600	 16.438920	-91.776210	 78.527420	-180.000000	-36.182010	 2.612219	 8.580725	-9.172223	-6.951153	-49.622500	 6.678035	-14.140580	-4.225929	-4.131196	 21.524690	 0.986298	-5.167839	 0.733520	 3.519257	-1.378229	 35.397820	-2.634230	 1.492435	 8.060814	 0.912826	-12.615230	-9.295402	-4.412880	 89.782150	 78.203890	 180.000000	-7.335207	 3.863315	-12.215810	-1.847407	-14.904300	 44.484160	-4.957383	 37.731600	 73.937380	 5.715225	 19.176060	-3.692089	 5.027514	 0.245388	-9.378011	-2.350882	 35.473990	 5.254307
-0.709148	-1.645780	 1.272839	-176.255600	 6.095335	-2.888452	-14.930660	-9.843716	-178.865900	 1.590986	-18.762210	 1.140917	-23.488320	 55.263490	 12.757600	-2.385833	 28.452760	 0.000004	 13.327400	-14.627870	-177.049500	-6.763840	-24.123140	 1.693035	 37.522700	 89.284540	-25.846300	 2.384659	 28.388700	-0.000001	-13.109530	 5.419545	 4.858960	-8.193866	-3.320757	-16.879600	 14.515270	-10.860070	 17.372340	-91.776160	 78.527400	 180.000000	-31.458630	 9.759136	 23.638120	-12.831460	-8.058186	-74.562900	 6.041839	-14.616630	-3.994395	-4.131196	 21.524690	 0.986298	-5.167839	 0.733520	 3.519257	-1.378229	 35.397820	-2.634230	 1.417086	 7.982344	 1.312682	-12.423140	-8.882523	-4.239014	 89.782100	 78.203900	 180.000000	-8.799745	 11.379510	-16.498650	 3.112453	-18.324080	 61.429040	-1.653663	 34.249290	 61.920150	 5.715225	 19.176060	-3.692089	 5.027514	 0.245388	-9.378011	-2.350882	 35.473990	 5.254307
-0.693730	-1.618415	 1.269526	-176.409500	 7.365545	-2.907027	-18.636160	-10.943380	 178.910000	 4.828119	-28.853650	 3.283729	-33.850880	 57.216030	 23.133680	-2.385833	 28.452760	 0.000004	 15.022030	-21.724350	-173.925000	-6.447719	-31.014840	 2.297630	 37.092960	 79.452570	-27.182220	 2.384659	 28.388700	-0.000001	-18.445400	 2.116021	 2.622720	-13.766610	 10.851910	-17.247780	 17.999580	-18.008260	 20.843310	-91.776210	 78.527400	-180.000000	-5.970780	 37.486210	 31.299920	-17.063150	-7.058917	-105.975200	 5.251406	-15.238090	-3.734183	-4.131196	 21.524690	 0.986298	-5.167839	 0.733520	 3.519257	-1.378229	 35.397820	-2.634230	 1.784526	 8.256781	 0.963010	-12.362720	-9.492794	-4.248788	 89.782150	 78.203920	 180.000000	-14.009800	 38.901660	-13.509810	 9.829951	-21.156230	 81.744190	-18.336920	 21.271810	 50.420830	 5.715225	 19.176060	-3.692089	 5.027514	 0.245388	-9.378011	-2.350882	 35.473990	 5.254307
